<?xml version="1.0" encoding="UTF-8" standalone="no"?>
<!-- Created with Inkscape (http://www.inkscape.org/) -->

<svg
   xmlns:dc="http://purl.org/dc/elements/1.1/"
   xmlns:cc="http://creativecommons.org/ns#"
   xmlns:rdf="http://www.w3.org/1999/02/22-rdf-syntax-ns#"
   xmlns:svg="http://www.w3.org/2000/svg"
   xmlns="http://www.w3.org/2000/svg"
   xmlns:sodipodi="http://sodipodi.sourceforge.net/DTD/sodipodi-0.dtd"
   xmlns:inkscape="http://www.inkscape.org/namespaces/inkscape"
   width="1170"
   height="710.75"
   id="svg2"
   version="1.1"
   inkscape:version="0.48.3.1 r9886"
   sodipodi:docname="window-lg.svg">
  <defs
     id="defs4" />
  <sodipodi:namedview
     id="base"
     pagecolor="#ffffff"
     bordercolor="#666666"
     borderopacity="1.0"
     inkscape:pageopacity="0.0"
     inkscape:pageshadow="2"
     inkscape:zoom="0.5"
     inkscape:cx="1620.3616"
     inkscape:cy="386.05015"
     inkscape:document-units="px"
     inkscape:current-layer="layer1"
     showgrid="false"
     inkscape:window-width="1920"
     inkscape:window-height="1000"
     inkscape:window-x="1920"
     inkscape:window-y="25"
     inkscape:window-maximized="1"
     fit-margin-top="0"
     fit-margin-left="0"
     fit-margin-right="0"
     fit-margin-bottom="0" />
  <metadata
     id="metadata7">
    <rdf:RDF>
      <cc:Work
         rdf:about="">
        <dc:format>image/svg+xml</dc:format>
        <dc:type
           rdf:resource="http://purl.org/dc/dcmitype/StillImage" />
        <dc:title />
      </cc:Work>
    </rdf:RDF>
  </metadata>
  <g
     inkscape:label="Layer 1"
     inkscape:groupmode="layer"
     id="layer1"
     transform="translate(-137.4345,4.2187334)">
    <rect
       style="fill:#bebebe;fill-opacity:1;stroke:#a02c2c;stroke-width:0;stroke-linecap:square;stroke-linejoin:round;stroke-miterlimit:4;stroke-opacity:1;stroke-dasharray:none"
       id="rect3018"
       width="1170"
       height="710.73907"
       x="137.43451"
       y="-4.2234941"
       rx="4"
       ry="4" />
    <path
       sodipodi:type="arc"
       style="fill:#c83725;fill-opacity:1;stroke:#a02c2c;stroke-width:0;stroke-linecap:square;stroke-linejoin:round;stroke-miterlimit:4;stroke-opacity:1;stroke-dasharray:none"
       id="path3788"
       sodipodi:cx="45.961941"
       sodipodi:cy="483.6463"
       sodipodi:rx="4.5456862"
       sodipodi:ry="4.5456862"
       d="m 50.507627,483.6463 c 0,2.51051 -2.035173,4.54569 -4.545686,4.54569 -2.510513,0 -4.545686,-2.03518 -4.545686,-4.54569 0,-2.51051 2.035173,-4.54568 4.545686,-4.54568 2.510513,0 4.545686,2.03517 4.545686,4.54568 z"
       transform="matrix(1.4029347,0,0,1.4029347,94.38324,-665.5222)" />
    <path
       transform="matrix(1.4029347,0,0,1.4029347,111.21845,-665.5222)"
       d="m 50.507627,483.6463 c 0,2.51051 -2.035173,4.54569 -4.545686,4.54569 -2.510513,0 -4.545686,-2.03518 -4.545686,-4.54569 0,-2.51051 2.035173,-4.54568 4.545686,-4.54568 2.510513,0 4.545686,2.03517 4.545686,4.54568 z"
       sodipodi:ry="4.5456862"
       sodipodi:rx="4.5456862"
       sodipodi:cy="483.6463"
       sodipodi:cx="45.961941"
       id="path3792"
       style="fill:#eac63a;fill-opacity:1;stroke:#a02c2c;stroke-width:0;stroke-linecap:square;stroke-linejoin:round;stroke-miterlimit:4;stroke-opacity:1;stroke-dasharray:none"
       sodipodi:type="arc" />
    <path
       sodipodi:type="arc"
       style="fill:#3fba30;fill-opacity:1;stroke:#a02c2c;stroke-width:0;stroke-linecap:square;stroke-linejoin:round;stroke-miterlimit:4;stroke-opacity:1;stroke-dasharray:none"
       id="path3794"
       sodipodi:cx="45.961941"
       sodipodi:cy="483.6463"
       sodipodi:rx="4.5456862"
       sodipodi:ry="4.5456862"
       d="m 50.507627,483.6463 c 0,2.51051 -2.035173,4.54569 -4.545686,4.54569 -2.510513,0 -4.545686,-2.03518 -4.545686,-4.54569 0,-2.51051 2.035173,-4.54568 4.545686,-4.54568 2.510513,0 4.545686,2.03517 4.545686,4.54568 z"
       transform="matrix(1.4029347,0,0,1.4029347,128.05367,-665.5222)" />
    <path
       style="fill:#e6e6e6;fill-opacity:1;stroke:#a02c2c;stroke-width:0;stroke-linecap:square;stroke-linejoin:round;stroke-miterlimit:4;stroke-opacity:1"
       d="M 0 33.03125 L 0 48.28125 L 0 148.375 L 0 163.625 L 0 231 L 0 246.25 L 0 686.15625 L 0 701.40625 C 0 706.58621 4.16379 710.75 9.34375 710.75 L 29.34375 710.75 L 1140.6562 710.75 L 1160.6562 710.75 C 1165.8363 710.75 1170 706.58621 1170 701.40625 L 1170 686.15625 L 1170 246.25 L 1170 163.625 L 1170 48.28125 L 1170 33.03125 L 1150 33.03125 L 20 33.03125 L 0 33.03125 z "
       transform="translate(137.4345,-4.2187334)"
       id="rect3798" />
  </g>
</svg>
