<?xml version="1.0" encoding="UTF-8" standalone="no"?>
<!-- Created with Inkscape (http://www.inkscape.org/) -->

<svg
   xmlns:dc="http://purl.org/dc/elements/1.1/"
   xmlns:cc="http://creativecommons.org/ns#"
   xmlns:rdf="http://www.w3.org/1999/02/22-rdf-syntax-ns#"
   xmlns:svg="http://www.w3.org/2000/svg"
   xmlns="http://www.w3.org/2000/svg"
   xmlns:sodipodi="http://sodipodi.sourceforge.net/DTD/sodipodi-0.dtd"
   xmlns:inkscape="http://www.inkscape.org/namespaces/inkscape"
   width="492.09"
   height="304.1875"
   id="svg2"
   version="1.1"
   inkscape:version="0.48.3.1 r9886"
   sodipodi:docname="window.svg">
  <defs
     id="defs4" />
  <sodipodi:namedview
     id="base"
     pagecolor="#ffffff"
     bordercolor="#666666"
     borderopacity="1.0"
     inkscape:pageopacity="0.0"
     inkscape:pageshadow="2"
     inkscape:zoom="1"
     inkscape:cx="539.61737"
     inkscape:cy="254.85804"
     inkscape:document-units="px"
     inkscape:current-layer="layer1"
     showgrid="false"
     inkscape:window-width="1920"
     inkscape:window-height="1000"
     inkscape:window-x="1920"
     inkscape:window-y="25"
     inkscape:window-maximized="1"
     fit-margin-top="0"
     fit-margin-left="0"
     fit-margin-right="0"
     fit-margin-bottom="0" />
  <metadata
     id="metadata7">
    <rdf:RDF>
      <cc:Work
         rdf:about="">
        <dc:format>image/svg+xml</dc:format>
        <dc:type
           rdf:resource="http://purl.org/dc/dcmitype/StillImage" />
        <dc:title></dc:title>
      </cc:Work>
    </rdf:RDF>
  </metadata>
  <g
     inkscape:label="Layer 1"
     inkscape:groupmode="layer"
     id="layer1"
     transform="translate(-137.375,-402.40625)">
    <g
       id="g3805">
      <rect
         ry="4"
         rx="4"
         y="402.46863"
         x="137.43449"
         height="304.05591"
         width="491.97281"
         id="rect3018"
         style="fill:#bebebe;fill-opacity:1;stroke:#a02c2c;stroke-width:0;stroke-linecap:square;stroke-linejoin:round;stroke-miterlimit:4;stroke-opacity:1;stroke-dasharray:none" />
      <path
         transform="matrix(0.84722221,0,0,0.84722221,108.78545,3.1299402)"
         d="m 50.507627,483.6463 a 4.5456862,4.5456862 0 1 1 -9.091372,0 4.5456862,4.5456862 0 1 1 9.091372,0 z"
         sodipodi:ry="4.5456862"
         sodipodi:rx="4.5456862"
         sodipodi:cy="483.6463"
         sodipodi:cx="45.961941"
         id="path3788"
         style="fill:#c83725;fill-opacity:1;stroke:#a02c2c;stroke-width:0;stroke-linecap:square;stroke-linejoin:round;stroke-miterlimit:4;stroke-opacity:1;stroke-dasharray:none"
         sodipodi:type="arc" />
      <path
         sodipodi:type="arc"
         style="fill:#eac63a;fill-opacity:1;stroke:#a02c2c;stroke-width:0;stroke-linecap:square;stroke-linejoin:round;stroke-miterlimit:4;stroke-opacity:1;stroke-dasharray:none"
         id="path3792"
         sodipodi:cx="45.961941"
         sodipodi:cy="483.6463"
         sodipodi:rx="4.5456862"
         sodipodi:ry="4.5456862"
         d="m 50.507627,483.6463 a 4.5456862,4.5456862 0 1 1 -9.091372,0 4.5456862,4.5456862 0 1 1 9.091372,0 z"
         transform="matrix(0.84722221,0,0,0.84722221,118.95211,3.1299402)" />
      <path
         transform="matrix(0.84722221,0,0,0.84722221,129.11878,3.1299402)"
         d="m 50.507627,483.6463 a 4.5456862,4.5456862 0 1 1 -9.091372,0 4.5456862,4.5456862 0 1 1 9.091372,0 z"
         sodipodi:ry="4.5456862"
         sodipodi:rx="4.5456862"
         sodipodi:cy="483.6463"
         sodipodi:cx="45.961941"
         id="path3794"
         style="fill:#3fba30;fill-opacity:1;stroke:#a02c2c;stroke-width:0;stroke-linecap:square;stroke-linejoin:round;stroke-miterlimit:4;stroke-opacity:1;stroke-dasharray:none"
         sodipodi:type="arc" />
      <path
         id="rect3798"
         d="m 137.4375,423.125 0,49.34375 0,35.34375 0,194.71875 c 0,2.216 1.784,4 4,4 l 483.96875,0 c 2.216,0 4,-1.784 4,-4 l 0,-194.71875 0,-35.34375 0,-49.34375 -491.96875,0 z"
         style="fill:#e6e6e6;fill-opacity:1;stroke:#a02c2c;stroke-width:0;stroke-linecap:square;stroke-linejoin:round;stroke-miterlimit:4;stroke-opacity:1"
         inkscape:connector-curvature="0" />
    </g>
  </g>
</svg>
