<?xml version="1.0" encoding="UTF-8" standalone="no"?>
<!-- Created with Inkscape (http://www.inkscape.org/) -->

<svg
   xmlns:dc="http://purl.org/dc/elements/1.1/"
   xmlns:cc="http://creativecommons.org/ns#"
   xmlns:rdf="http://www.w3.org/1999/02/22-rdf-syntax-ns#"
   xmlns:svg="http://www.w3.org/2000/svg"
   xmlns="http://www.w3.org/2000/svg"
   xmlns:sodipodi="http://sodipodi.sourceforge.net/DTD/sodipodi-0.dtd"
   xmlns:inkscape="http://www.inkscape.org/namespaces/inkscape"
   width="199.99628"
   height="199.98451"
   id="svg2"
   version="1.1"
   inkscape:version="0.48.3.1 r9886"
   sodipodi:docname="New document 1">
  <defs
     id="defs4" />
  <sodipodi:namedview
     id="base"
     pagecolor="#ffffff"
     bordercolor="#666666"
     borderopacity="1.0"
     inkscape:pageopacity="0.0"
     inkscape:pageshadow="2"
     inkscape:zoom="0.70710678"
     inkscape:cx="431.84294"
     inkscape:cy="180.46937"
     inkscape:document-units="px"
     inkscape:current-layer="layer1"
     showgrid="false"
     fit-margin-top="0"
     fit-margin-left="0"
     fit-margin-right="0"
     fit-margin-bottom="0"
     inkscape:window-width="1920"
     inkscape:window-height="1000"
     inkscape:window-x="1920"
     inkscape:window-y="25"
     inkscape:window-maximized="1" />
  <metadata
     id="metadata7">
    <rdf:RDF>
      <cc:Work
         rdf:about="">
        <dc:format>image/svg+xml</dc:format>
        <dc:type
           rdf:resource="http://purl.org/dc/dcmitype/StillImage" />
        <dc:title></dc:title>
      </cc:Work>
    </rdf:RDF>
  </metadata>
  <g
     inkscape:label="Layer 1"
     inkscape:groupmode="layer"
     id="layer1"
     transform="translate(-483.64767,-430.90224)">
    <g
       id="g3784"
       transform="matrix(1.1768945,0,0,1.1705952,-85.538067,-107.64222)">
      <g
         id="g3006">
        <path
           style="fill:#dbe359;fill-opacity:1;stroke:#000000;stroke-width:0.85197687px;stroke-linecap:butt;stroke-linejoin:miter;stroke-opacity:1"
           d="m 544.87821,554.28538 -50.35639,0.27569 c 0,0 -13.39363,-0.10526 -9.88091,-10.83893 3.51272,-10.73368 14.3272,-25.07882 14.3272,-25.07882 0,0 8.51461,-10.40391 17.6441,-6.34668 9.12949,4.05722 30.99503,18.58059 30.99503,18.58059 l 21.85676,12.91626 z"
           id="path2996"
           inkscape:connector-curvature="0"
           sodipodi:nodetypes="ccscsccc"
           inkscape:transform-center-x="43.205458"
           inkscape:transform-center-y="-10.885527" />
        <path
           inkscape:transform-center-y="-43.215384"
           inkscape:transform-center-x="-11.308761"
           sodipodi:nodetypes="ccscsccc"
           inkscape:connector-curvature="0"
           id="path3000"
           d="m 560.38962,521.2524 0.0715,-50.3571 c 0,0 0.1976,-13.39259 10.9068,-9.80594 10.7092,3.58665 24.97943,14.49979 24.97943,14.49979 0,0 10.34496,8.58612 6.22488,17.68744 -4.12009,9.10129 -18.79387,30.86617 -18.79387,30.86617 l -13.06665,21.76718 z"
           style="fill:#dbe359;fill-opacity:1;stroke:#000000;stroke-width:0.85197687px;stroke-linecap:butt;stroke-linejoin:miter;stroke-opacity:1" />
        <path
           style="fill:#dbe359;fill-opacity:1;stroke:#000000;stroke-width:0.85197687px;stroke-linecap:butt;stroke-linejoin:miter;stroke-opacity:1"
           d="m 592.29284,539.28602 50.35508,-0.45424 c 0,0 13.39393,0.0578 9.9193,10.80382 -3.47464,10.74606 -14.23817,25.12948 -14.23817,25.12948 0,0 -8.47765,10.43403 -17.62148,6.40921 -9.14382,-4.02484 -31.06072,-18.47058 -31.06072,-18.47058 l -21.90242,-12.83867 z"
           id="path3002"
           inkscape:connector-curvature="0"
           sodipodi:nodetypes="ccscsccc"
           inkscape:transform-center-x="-43.199653"
           inkscape:transform-center-y="10.649384" />
        <path
           inkscape:transform-center-y="43.213165"
           inkscape:transform-center-x="11.234384"
           sodipodi:nodetypes="ccscsccc"
           inkscape:connector-curvature="0"
           id="path3004"
           d="m 575.44436,569.69217 0.0118,50.35714 c 0,0 -0.17543,13.3929 -10.89056,9.82399 -10.71511,-3.56891 -25.00339,-14.4584 -25.00339,-14.4584 0,0 -10.35915,-8.569 -6.25415,-17.67712 4.105,-9.1081 18.74273,-30.89725 18.74273,-30.89725 l 13.03059,-21.78878 z"
           style="fill:#dbe359;fill-opacity:1;stroke:#000000;stroke-width:0.85197687px;stroke-linecap:butt;stroke-linejoin:miter;stroke-opacity:1" />
      </g>
      <path
         transform="matrix(1.2735849,0,0,1.2735849,69.170983,-156.63706)"
         d="m 411.07142,551.29077 c 0,10.45396 -8.47461,18.92857 -18.92857,18.92857 -10.45396,0 -18.92857,-8.47461 -18.92857,-18.92857 0,-10.45396 8.47461,-18.92857 18.92857,-18.92857 10.45396,0 18.92857,8.47461 18.92857,18.92857 z"
         sodipodi:ry="18.928572"
         sodipodi:rx="18.928572"
         sodipodi:cy="551.29077"
         sodipodi:cx="392.14285"
         id="path2998"
         style="fill:#803300;fill-opacity:1;stroke:#000000;stroke-width:0.66895968;stroke-linecap:round;stroke-linejoin:round;stroke-miterlimit:4;stroke-opacity:1;stroke-dasharray:none"
         sodipodi:type="arc" />
      <path
         sodipodi:type="arc"
         style="fill:#483737;fill-opacity:1;stroke:#000000;stroke-width:3.47344446;stroke-linecap:round;stroke-linejoin:round;stroke-miterlimit:4;stroke-opacity:1;stroke-dasharray:none"
         id="path3782"
         sodipodi:cx="392.14285"
         sodipodi:cy="551.29077"
         sodipodi:rx="18.928572"
         sodipodi:ry="18.928572"
         d="m 411.07142,551.29077 c 0,10.45396 -8.47461,18.92857 -18.92857,18.92857 -10.45396,0 -18.92857,-8.47461 -18.92857,-18.92857 0,-10.45396 8.47461,-18.92857 18.92857,-18.92857 10.45396,0 18.92857,8.47461 18.92857,18.92857 z"
         transform="matrix(0.24528303,0,0,0.24528303,472.41221,410.25627)" />
    </g>
  </g>
</svg>
